PathFileType	4	(X/Y/Z)	C:\Users\Basilio\Documents\Thesis Gigler\squatting_fais\c3dfiles\036\SJ_pre3\markers_experimental.trc
DataRate	CameraRate	NumFrames	NumMarkers	Units	OrigDataRate	OrigDataStartFrame	OrigNumFrames
200.000000	200.000000	4	61	mm	200.000000	262	2099
Frame#	Time	FHD			LBHD			RBHD			C7			T10			CLAV			LSHO			LUUPA			LMUPA			LDUPA			LLEP			LMEP			LRAD			LUL			LRFIN			RSHO			RUPA1			RMUPA			RDUPA			RLEP			RMEP			RRAD			RUL			RUFIN			LASI			RASI			USACR			LSACR			RSACR			LTHI1			LTHI2			LTHI3			LTHI4			LLFC			LMFC			LTIB1			LTIB2			LTIB3			LTIB4			LLMAL			LMMAL			LHEE			LMT1			LMT2			LMT5			RTHI			RTHI2			RTHI3			RTHI4			RLFC			RMFC			RTIB1			RTIB2			RTIB3			RTIB4			RLMAL			RMMAL			RHEE			RMT1			RMT2			RMT5			
		X1	Y1	Z1	X2	Y2	Z2	X3	Y3	Z3	X4	Y4	Z4	X5	Y5	Z5	X6	Y6	Z6	X7	Y7	Z7	X8	Y8	Z8	X9	Y9	Z9	X10	Y10	Z10	X11	Y11	Z11	X12	Y12	Z12	X13	Y13	Z13	X14	Y14	Z14	X15	Y15	Z15	X16	Y16	Z16	X17	Y17	Z17	X18	Y18	Z18	X19	Y19	Z19	X20	Y20	Z20	X21	Y21	Z21	X22	Y22	Z22	X23	Y23	Z23	X24	Y24	Z24	X25	Y25	Z25	X26	Y26	Z26	X27	Y27	Z27	X28	Y28	Z28	X29	Y29	Z29	X30	Y30	Z30	X31	Y31	Z31	X32	Y32	Z32	X33	Y33	Z33	X34	Y34	Z34	X35	Y35	Z35	X36	Y36	Z36	X37	Y37	Z37	X38	Y38	Z38	X39	Y39	Z39	X40	Y40	Z40	X41	Y41	Z41	X42	Y42	Z42	X43	Y43	Z43	X44	Y44	Z44	X45	Y45	Z45	X46	Y46	Z46	X47	Y47	Z47	X48	Y48	Z48	X49	Y49	Z49	X50	Y50	Z50	X51	Y51	Z51	X52	Y52	Z52	X53	Y53	Z53	X54	Y54	Z54	X55	Y55	Z55	X56	Y56	Z56	X57	Y57	Z57	X58	Y58	Z58	X59	Y59	Z59	X60	Y60	Z60	X61	Y61	Z61	

263	1.31	-53.9397659301758	1431.658325195313	-958.2296142578127	-222.8690948486329	1484.71728515625	-1012.412414550781	-167.2248687744141	1464.021118164063	-871.944030761719	-321.7644958496094	1384.734252929688	-972.476501464844	-384.0482788085939	1071.441284179688	-963.5410766601565	-197.0257873535157	1293.627197265625	-952.4822387695315	-232.164047241211	1345.524169921875	-1100.028564453125	-293.7044982910157	1220.601928710938	-1229.662719726563	-263.9140930175782	1180.845825195313	-1226.78955078125	-309.2036437988282	1160.524169921875	-1261.661987304688	-317.0213012695313	1105.572875976563	-1275.041015625	-375.3892822265626	1100.299438476563	-1240.396606445313	-214.5338439941407	898.385925292969	-1224.204956054688	-246.2625732421876	918.3055419921877	-1164.6162109375	-219.7022552490235	862.0589599609377	-1135.51025390625	-254.6579132080079	1348.48046875	-809.1223754882815	-321.1930236816407	1241.259399414063	-693.2677612304689	-284.3898010253907	1208.36962890625	-688.1283569335939	-326.6959533691407	1182.956176757813	-654.7905883789064	-327.2502746582032	1114.857299804688	-629.9727172851564	-383.6841430664063	1089.134765625	-675.6140136718751	-249.6243133544922	929.167175292969	-738.9991455078126	-212.0480651855469	915.6108398437502	-685.6664428710939	-221.4678955078126	883.2774658203127	-776.2036132812502	-203.7253875732422	871.4558715820315	-1081.063598632813	-223.0024719238282	881.3311157226565	-811.584167480469	-395.5042724609376	981.1361083984377	-966.0671386718752	-414.8606262207032	954.2947387695315	-991.744567871094	-418.3135986328126	958.8218994140627	-937.2940673828127	-296.4727172851563	746.9212646484376	-1161.010131835938	-274.0187988281251	665.6498413085939	-1161.34423828125	-230.7688293457032	665.1281127929689	-1141.865966796875	-308.4421997070313	616.9286499023439	-1161.055419921875	-359.5092163085938	466.8240356445314	-1146.674194335938	-354.7643737792969	421.1583557128907	-1000.156677246094	-287.0123901367188	285.8050842285157	-1088.163940429688	-306.0158081054688	251.5469970703126	-1166.888305664063	-283.2060546875001	244.6527099609376	-1127.7744140625	-282.7664184570313	161.6947021484375	-1107.560913085938	-328.2399291992188	83.16720581054689	-1171.207153320313	-307.2432250976563	81.73680877685548	-1088.636474609375	-378.4263305664063	55.22661209106447	-1138.660888671875	-189.123519897461	54.04958343505861	-1105.305786132813	-175.5210876464844	54.13314819335939	-1152.360961914063	-214.3592376708985	34.35207748413087	-1203.382690429688	-363.2083740234376	708.6107788085939	-750.1954345703126	-327.1146240234376	653.1074218750001	-739.3120117187501	-294.6441040039063	655.5927734375001	-736.6382446289064	-353.3317565917969	574.6972045898439	-748.2207031250001	-346.3566589355469	461.6148986816407	-751.9114379882814	-316.4716186523438	439.9154357910157	-895.0661621093752	-296.5162353515626	308.5595703125001	-771.871276855469	-363.5932312011719	235.5875396728516	-719.1158447265626	-319.3481445312501	233.3661346435547	-734.6563110351564	-305.6244506835938	181.0173492431641	-759.1442260742189	-374.0196838378907	82.38733673095705	-731.7456665039064	-333.7626647949219	84.00986480712892	-805.179382324219	-413.3056640625001	53.07501602172853	-770.7479248046877	-215.5446472167969	52.86682128906251	-767.3921508789064	-220.2756042480469	57.67891311645509	-717.0096435546876	-262.3242797851563	34.1842384338379	-674.7226562500001	
264	1.315	-52.32310104370119	1429.5458984375	-958.1137695312502	-220.9764404296876	1484.155517578125	-1012.230895996094	-165.1012115478516	1462.661865234375	-871.8363037109377	-320.9276123046876	1385.02099609375	-972.3748168945315	-384.2686157226564	1071.6767578125	-963.6125488281252	-196.1196899414063	1293.083862304688	-952.3500976562502	-231.3979797363282	1345.404907226563	-1099.962158203125	-293.3058471679688	1220.770141601563	-1229.622436523438	-263.7809753417969	1180.932373046875	-1226.698364257813	-308.7630920410157	1160.668334960938	-1261.619384765625	-317.0867309570313	1105.755004882813	-1274.9755859375	-375.5575256347657	1100.707763671875	-1240.3125	-215.2412261962891	898.6047363281252	-1224.2470703125	-246.7800292968751	918.2719726562502	-1164.686157226563	-220.3096618652344	862.0403442382815	-1135.63427734375	-253.8739013671876	1348.34521484375	-809.3455200195315	-320.9456787109376	1241.331665039063	-693.1838989257814	-284.3309326171876	1208.367431640625	-688.1810302734376	-326.7827148437501	1183.0478515625	-654.8387451171876	-327.3925476074219	1114.913208007813	-630.0562744140626	-383.9588012695313	1089.406616210938	-675.7192382812501	-250.3180847167969	929.0720214843752	-739.0227050781251	-213.0069122314454	915.371276855469	-685.6748657226564	-222.1208648681641	883.166198730469	-776.1392211914065	-204.3133087158204	871.364440917969	-1081.033203125	-223.7848358154297	881.1196899414065	-811.6296997070315	-395.9895324707032	981.3084716796877	-966.1538696289065	-415.3367309570314	954.4648437500002	-991.9150390625002	-418.7317199707032	959.0169677734377	-937.340026855469	-297.1341247558594	746.8555297851564	-1161.017456054688	-274.5443115234376	665.6775512695314	-1161.4482421875	-231.3060302734376	665.1998901367189	-1141.973510742188	-309.0033874511719	616.9448852539064	-1161.187255859375	-360.2296447753907	466.7698364257814	-1146.653076171875	-355.1203002929688	421.1669006347657	-1000.275939941406	-287.2675170898438	285.9738159179688	-1088.155395507813	-306.1354370117188	251.5388641357422	-1166.973388671875	-283.3850708007813	244.6181640625001	-1127.824462890625	-282.9467163085938	161.7194976806641	-1107.602294921875	-328.2796936035157	83.14493560791017	-1171.262817382813	-307.2979431152344	81.79745483398439	-1088.668334960938	-378.4623107910157	55.201473236084	-1138.755737304688	-189.1923065185547	54.00996780395509	-1105.29638671875	-175.539794921875	54.08679199218751	-1152.340698242188	-214.2898559570313	34.30238723754884	-1203.341064453125	-363.9603271484376	708.7044067382814	-750.2335205078126	-327.4653625488282	653.0515136718751	-739.5231933593751	-295.1916198730469	655.7105712890626	-736.7100830078126	-353.8715209960938	574.7563476562501	-748.2757568359376	-346.5360717773438	461.5912475585939	-751.9916992187501	-316.8695678710938	439.9260559082032	-895.089294433594	-296.6851196289063	308.5473022460938	-771.9046630859377	-363.8357543945313	235.6680908203126	-719.1030883789064	-319.4278259277344	233.3573913574219	-734.6680908203126	-305.7298583984376	181.0612335205078	-759.1724853515626	-374.0185546875001	82.34688568115236	-731.7352905273439	-333.7048339843751	84.0288543701172	-805.1084594726565	-413.3086853027345	53.07919311523439	-770.7404785156252	-215.6724090576172	52.88394165039064	-767.4561767578126	-220.8790435791016	57.81228256225587	-717.0560302734376	-262.3883361816407	34.2237892150879	-674.7042846679689	
265	1.32	-50.8066749572754	1427.41552734375	-958.2493896484377	-218.6892852783204	1483.680541992188	-1012.108215332031	-163.3767395019532	1461.597045898438	-871.8718872070315	-319.8075866699219	1385.3466796875	-972.478210449219	-384.5021362304689	1071.91357421875	-963.7058105468752	-196.0056610107422	1292.68505859375	-952.2984008789065	-230.6966857910157	1345.329467773438	-1100.029541015625	-293.0272827148438	1220.924194335938	-1229.639892578125	-263.4981079101563	1180.99609375	-1226.730346679688	-309.5984497070313	1161.166259765625	-1261.646728515625	-317.2088623046876	1105.982177734375	-1274.968139648438	-375.7915649414063	1101.20849609375	-1240.263061523438	-215.9455261230469	898.5897216796877	-1224.390869140625	-247.3883819580079	918.3304443359377	-1164.780883789063	-220.9696807861329	862.0449218750002	-1135.719116210938	-253.3731689453126	1348.18017578125	-809.3486328125002	-320.7242431640626	1241.457641601563	-693.2145996093751	-284.3264160156251	1208.34765625	-688.2424316406251	-326.8046264648438	1183.14306640625	-654.9153442382814	-327.6033630371094	1114.979736328125	-630.1770019531251	-384.3526000976564	1089.651245117188	-675.7217407226564	-250.9210968017579	929.0379638671877	-739.0203857421876	-213.7252349853516	915.1827392578127	-685.5878295898439	-222.6761474609376	883.0968017578127	-776.1483154296877	-204.8963775634766	871.3501586914065	-1081.18115234375	-226.4521026611329	880.4310302734377	-810.4116210937502	-396.4457397460939	981.4939575195315	-966.246520996094	-415.8822326660157	954.6337890625002	-992.0474853515627	-419.2534790039064	959.1936035156252	-937.4238281250002	-297.6053466796876	746.9326782226564	-1161.082763671875	-275.0834045410157	665.7287597656251	-1161.612182617188	-231.7734375000001	665.2342529296876	-1142.059326171875	-309.4728088378907	616.9750366210939	-1161.248168945313	-360.5113830566407	466.7296447753907	-1146.644287109375	-355.5347290039063	421.1861877441407	-1000.309387207031	-287.5645446777344	285.9301452636719	-1088.190551757813	-306.6761779785157	251.8063354492188	-1166.897583007813	-283.7435913085938	244.5061798095704	-1127.77587890625	-283.2478027343751	161.7731323242188	-1107.646484375	-328.3125610351563	83.10900115966798	-1171.299682617188	-307.3273925781251	81.80474853515626	-1088.685302734375	-378.4685668945313	55.1836624145508	-1138.711059570313	-189.2247772216797	54.01194381713869	-1105.272583007813	-175.5238189697266	54.08005523681642	-1152.38232421875	-214.3548126220704	34.30723571777344	-1203.359008789063	-364.4185791015626	708.6157226562501	-750.3715820312501	-328.1402893066407	653.1354980468751	-739.6046752929689	-295.7060852050782	655.6920776367189	-737.2586669921876	-354.4152221679688	574.6934814453126	-748.3623046875001	-346.7897033691407	461.6102294921876	-752.0747070312501	-317.2151489257813	439.8989257812501	-895.0892333984377	-296.8730163574219	308.5406799316407	-771.8787841796877	-363.9585266113282	235.6898345947266	-719.1130371093751	-319.5583801269532	233.3933868408204	-734.7026367187501	-305.8387756347657	181.0646057128907	-759.1658935546876	-374.0660400390626	82.35130310058595	-731.7231445312501	-333.8476257324219	84.01412963867189	-805.1328125000002	-413.3090209960939	53.07800674438478	-770.7385864257815	-215.6745910644532	52.86183166503908	-767.4490356445314	-220.6898803710938	57.79163742065431	-717.0698242187501	-262.3799133300782	34.20182800292969	-674.6972045898439	
266	1.325	-49.33626174926759	1425.401000976563	-958.2744140625002	-217.0065612792969	1483.072021484375	-1011.941589355469	-161.5665283203125	1460.419799804688	-871.6016845703127	-318.9450683593751	1385.52685546875	-972.2917480468752	-384.7192687988282	1072.106201171875	-963.7932128906252	-195.0295867919922	1292.015747070313	-952.209655761719	-229.9241180419922	1345.232299804688	-1100.100708007813	-292.6380004882813	1221.082641601563	-1229.654052734375	-263.0931396484376	1180.986206054688	-1226.78662109375	-309.5355834960938	1161.322387695313	-1261.62890625	-317.8540039062501	1106.338256835938	-1275.051147460938	-375.8912353515626	1101.684204101563	-1240.24462890625	-216.7499084472657	898.6181640625002	-1224.49072265625	-247.9768829345704	918.3492431640627	-1164.869873046875	-221.5042724609376	862.1035766601565	-1135.890869140625	-252.6410522460938	1348.114501953125	-809.3984985351565	-320.3756103515626	1241.526489257813	-693.2886352539064	-284.2824096679688	1208.278076171875	-688.2533569335939	-326.7924499511719	1183.238159179688	-654.9417114257814	-327.9266052246094	1115.079223632813	-630.2761230468751	-384.6596679687501	1089.890991210938	-675.7814941406251	-251.4894104003907	928.9226684570315	-738.9956665039064	-214.3769836425782	914.982116699219	-685.3668212890626	-223.4325866699219	882.9855957031252	-776.1331787109377	-205.379623413086	871.2636718750002	-1081.352783203125	-225.060531616211	881.0891113281252	-811.4144287109377	-396.8970031738282	981.624206542969	-966.4348754882815	-416.2905578613282	954.783874511719	-992.2188110351565	-419.6949157714845	959.314636230469	-937.5083007812502	-298.0793151855469	746.8457641601564	-1161.198364257813	-275.6581726074219	665.6334838867189	-1161.666381835938	-232.3151245117188	665.2085571289064	-1142.22705078125	-309.9523925781251	616.9188842773439	-1161.338745117188	-360.8187561035157	466.7002258300782	-1146.7080078125	-356.2774658203126	421.0463256835939	-1000.545349121094	-287.7534179687501	286.0345458984376	-1088.246337890625	-306.4603576660157	251.5161743164063	-1167.038330078125	-283.8622436523438	244.5133972167969	-1127.917358398438	-283.2697143554688	161.7470092773438	-1107.71875	-328.3531799316407	83.07044219970705	-1171.314819335938	-307.3598327636719	81.77801513671876	-1088.723876953125	-378.4754638671876	55.1315040588379	-1138.747802734375	-189.2932739257813	54.01935195922853	-1105.248657226563	-175.6219482421875	54.14966201782228	-1152.325805664063	-214.3414306640626	34.27478790283204	-1203.373779296875	-365.0758666992188	708.5877685546876	-750.4103393554689	-328.8305969238282	653.2327880859376	-739.7174072265626	-296.4166564941407	655.8256835937501	-737.2288818359376	-355.1231079101563	574.5827636718751	-748.4586791992189	-347.1757812500001	461.649383544922	-752.1168212890626	-317.6619873046876	439.8709411621095	-895.118347167969	-297.0067138671876	308.5997924804688	-771.9585571289065	-364.0958557128907	235.6629180908204	-719.0894775390626	-319.6479492187501	233.3747863769532	-734.7714843750001	-305.9980468750001	181.0726165771485	-759.1832275390626	-374.1100769042969	82.33765411376955	-731.6813354492189	-333.8573303222657	84.00000000000001	-805.1130981445315	-413.316375732422	53.01950073242189	-770.689392089844	-215.7129516601563	52.90829086303712	-767.4418334960939	-220.7425689697266	57.81683731079103	-717.0590820312501	-262.3671569824219	34.20173263549805	-674.7355957031251	
